<svg width="69" height="65" viewBox="0 0 69 65" fill="none" xmlns="http://www.w3.org/2000/svg">
<path fill-rule="evenodd" clip-rule="evenodd" d="M7.4519 7.4519C8.0614 6.84241 8.88805 6.5 9.75 6.5H45.5C47.2949 6.5 48.75 5.04493 48.75 3.25C48.75 1.45507 47.2949 0 45.5 0H9.75C7.16414 0 4.68419 1.02723 2.85571 2.85571C1.02723 4.68419 0 7.16414 0 9.75V55.25C0 57.8359 1.02723 60.3158 2.85571 62.1443C4.68419 63.9728 7.16414 65 9.75 65H55.25C57.8359 65 60.3158 63.9728 62.1443 62.1443C63.9728 60.3158 65 57.8359 65 55.25V32.5C65 30.7051 63.5449 29.25 61.75 29.25C59.9551 29.25 58.5 30.7051 58.5 32.5V55.25C58.5 56.112 58.1576 56.9386 57.5481 57.5481C56.9386 58.1576 56.112 58.5 55.25 58.5H9.75C8.88805 58.5 8.0614 58.1576 7.4519 57.5481C6.84241 56.9386 6.5 56.112 6.5 55.25V9.75C6.5 8.88805 6.84241 8.0614 7.4519 7.4519ZM34.7981 41.2981L67.2981 8.7981C68.5673 7.52889 68.5673 5.47111 67.2981 4.2019C66.0289 2.9327 63.9711 2.9327 62.7019 4.2019L32.5 34.4038L25.0481 26.9519C23.7789 25.6827 21.7211 25.6827 20.4519 26.9519C19.1827 28.2211 19.1827 30.2789 20.4519 31.5481L30.2019 41.2981C31.4711 42.5673 33.5289 42.5673 34.7981 41.2981Z" fill="#CA0000"/>
</svg>
