<svg width="40" height="40" viewBox="0 0 40 40" fill="none" xmlns="http://www.w3.org/2000/svg">
<path fill-rule="evenodd" clip-rule="evenodd" d="M20 0C8.95431 0 0 8.95431 0 20C0 31.0457 8.95431 40 20 40C31.0457 40 40 31.0457 40 20C40 8.95431 31.0457 0 20 0ZM21.2024 17.8306H24.4421L24.0201 20.6615H21.2024V27.9259H17.8251V20.6615H15V17.8306H17.8251V15.7427C17.8251 13.3197 19.534 12 22.032 12C23.2294 12 24.2566 12.0769 24.5556 12.1115V14.6438L22.8247 14.6445C21.4666 14.6445 21.2024 15.2031 21.2024 16.0229V17.8306Z" fill="#4A6DB4"/>
</svg>
