<svg width="40" height="40" viewBox="0 0 40 40" fill="none" xmlns="http://www.w3.org/2000/svg">
<path fill-rule="evenodd" clip-rule="evenodd" d="M0 20C0 8.95431 8.95431 0 20 0C31.0457 0 40 8.95431 40 20C40 31.0457 31.0457 40 20 40C8.95431 40 0 31.0457 0 20ZM24.9176 19.338H18.6289V21.4342H22.4656C21.8933 23.2566 20.191 24.5786 18.1797 24.5786C15.6988 24.5786 13.6878 22.5674 13.6878 20.0867C13.6878 17.6058 15.6989 15.5948 18.1797 15.5948C19.429 15.5948 20.5589 16.1049 21.3731 16.928L22.8947 15.2741C21.6795 14.0833 20.0155 13.3488 18.1797 13.3488C14.4585 13.3488 11.4419 16.3655 11.4419 20.0867C11.4419 23.8078 14.4585 26.8246 18.1797 26.8246C21.4394 26.8246 24.2932 24.5096 24.9176 21.4343V20.7605H26.4897V22.3327H27.8374V20.7605H29.4095V19.4129H27.8374V17.8407H26.4897V19.4129H24.9176V19.338L24.9176 19.338Z" fill="#CA0000"/>
</svg>
