<svg width="24" height="24" viewBox="0 0 24 24" fill="none" xmlns="http://www.w3.org/2000/svg">
<rect width="24" height="24" fill="#2867B2"/>
<path d="M9.25 16H7.125V9.3125H9.25V16ZM8.1875 8.375C7.5 8.375 7 7.875 7 7.1875C7 6.5 7.5625 6 8.1875 6C8.875 6 9.375 6.5 9.375 7.1875C9.375 7.875 8.875 8.375 8.1875 8.375ZM17 16H14.875V12.375C14.875 11.3125 14.4375 11 13.8125 11C13.1875 11 12.5625 11.5 12.5625 12.4375V16H10.4375V9.3125H12.4375V10.25C12.625 9.8125 13.375 9.125 14.4375 9.125C15.625 9.125 16.875 9.8125 16.875 11.875V16H17Z" fill="white"/>
</svg>
