<svg width="40" height="40" viewBox="0 0 40 40" fill="none" xmlns="http://www.w3.org/2000/svg">
<path fill-rule="evenodd" clip-rule="evenodd" d="M20 40C31.0457 40 40 31.0457 40 20C40 8.9543 31.0457 0 20 0C8.9543 0 0 8.9543 0 20C0 31.0457 8.9543 40 20 40Z" fill="#424242"/>
<path d="M12.1428 17.66L19.7528 21.6179C19.8292 21.6575 19.9139 21.6783 20 21.6783C20.086 21.6783 20.1708 21.6575 20.2471 21.6179L27.8571 17.6607V24.5357C27.8571 25.1287 27.6303 25.6992 27.2231 26.1302C26.8158 26.5612 26.2591 26.82 25.6671 26.8536L25.5357 26.8571H14.4643C13.8713 26.8572 13.3008 26.6303 12.8698 26.2231C12.4388 25.8159 12.18 25.2591 12.1464 24.6671L12.1428 24.5357V17.66ZM14.4643 14H25.5357C26.1286 14 26.6991 14.2268 27.1301 14.6341C27.5611 15.0413 27.82 15.598 27.8535 16.19L27.8571 16.3214V16.4529L20 20.5386L12.1428 16.4529V16.3214C12.1428 15.7285 12.3696 15.158 12.7769 14.727C13.1841 14.296 13.7408 14.0371 14.3328 14.0036L14.4643 14H25.5357H14.4643Z" fill="white"/>
</svg>
