<svg width="24" height="24" viewBox="0 0 24 24" fill="none" xmlns="http://www.w3.org/2000/svg">
<g clip-path="url(#clip0_952_470)">
<path d="M24 0H0V24H24V0Z" fill="#F78422"/>
<path d="M14.0821 9.91791C12.2005 8.03628 9.69685 7 7.03247 7V8.96038C9.17321 8.96038 11.1845 9.79273 12.6959 11.3041C14.2073 12.8155 15.0396 14.8268 15.0396 16.9676H17C17 14.3032 15.9637 11.7995 14.0821 9.91791Z" fill="white"/>
<path d="M7.01221 10.3174V12.2778C9.59813 12.2778 11.702 14.3816 11.702 16.9676H13.6624C13.6624 13.3006 10.6791 10.3174 7.01221 10.3174Z" fill="white"/>
<path d="M8.40409 17.022C9.17954 17.022 9.80817 16.3934 9.80817 15.618C9.80817 14.8425 9.17954 14.2139 8.40409 14.2139C7.62863 14.2139 7 14.8425 7 15.618C7 16.3934 7.62863 17.022 8.40409 17.022Z" fill="white"/>
</g>
<defs>
<clipPath id="clip0_952_470">
<rect width="24" height="24" fill="white"/>
</clipPath>
</defs>
</svg>
