<svg width="40" height="40" viewBox="0 0 40 40" fill="none" xmlns="http://www.w3.org/2000/svg">
<g clip-path="url(#clip0_687_8832)">
<path d="M20 40C31.0457 40 40 31.0457 40 20C40 8.95432 31.0457 0 20 0C8.95432 0 0 8.95432 0 20C0 31.0457 8.95432 40 20 40Z" fill="#34AADF"/>
<path d="M11.1409 18.7014C11.1409 18.7014 19.3717 15.3235 22.2263 14.1341C23.3206 13.6583 27.0315 12.1358 27.0315 12.1358C27.0315 12.1358 28.7443 11.4698 28.6015 13.0874C28.5539 13.7535 28.1734 16.0847 27.7928 18.6063C27.2218 22.1745 26.6033 26.0758 26.6033 26.0758C26.6033 26.0758 26.5082 27.1701 25.6994 27.3604C24.8906 27.5507 23.5584 26.6943 23.3206 26.504C23.1302 26.3613 19.7523 24.2203 18.5153 23.1736C18.1823 22.8882 17.8017 22.3173 18.5629 21.6512C20.2756 20.0812 22.3214 18.1305 23.5584 16.8935C24.1293 16.3226 24.7002 14.9905 22.3214 16.608C18.9435 18.9393 15.6131 21.1278 15.6131 21.1278C15.6131 21.1278 14.8519 21.6036 13.4246 21.1754C11.9973 20.7472 10.3321 20.1763 10.3321 20.1763C10.3321 20.1763 9.19032 19.4627 11.1409 18.7014Z" fill="white"/>
</g>
<defs>
<clipPath id="clip0_687_8832">
<rect width="40" height="40" fill="white"/>
</clipPath>
</defs>
</svg>
