<svg width="24" height="24" viewBox="0 0 24 24" fill="none" xmlns="http://www.w3.org/2000/svg">
<rect width="24" height="24" rx="1.33333" fill="#1DADEB"/>
<path fill-rule="evenodd" clip-rule="evenodd" d="M16.155 10.1424C16.5785 9.9122 16.9038 9.54772 17.057 9.1134C16.6606 9.32657 16.2215 9.48132 15.7542 9.56472C15.38 9.20324 14.8468 8.97742 14.2567 8.97742C13.1237 8.97742 12.205 9.81012 12.205 10.8372C12.205 10.983 12.2232 11.125 12.2582 11.2611C10.5531 11.1835 9.0413 10.4431 8.02945 9.31782C7.85285 9.59251 7.75165 9.91202 7.75165 10.2529C7.75165 10.8982 8.11385 11.4674 8.66435 11.8009C8.32805 11.7913 8.0117 11.7076 7.7351 11.5683C7.7349 11.5761 7.7349 11.5838 7.7349 11.5917C7.7349 12.4928 8.4421 13.2445 9.38065 13.4154C9.2085 13.4579 9.02725 13.4807 8.84015 13.4807C8.70795 13.4807 8.5794 13.469 8.45415 13.4473C8.7152 14.1861 9.47285 14.7239 10.3707 14.7389C9.6685 15.2377 8.7839 15.5351 7.82265 15.5351C7.65705 15.5351 7.49375 15.5262 7.33325 15.5091C8.2412 16.0367 9.3196 16.3447 10.4782 16.3447C14.2519 16.3447 16.3155 13.5107 16.3155 11.0529C16.3155 10.9723 16.3135 10.8921 16.3095 10.8123C16.7104 10.55 17.0582 10.2225 17.3333 9.84951C16.9654 9.99746 16.5699 10.0974 16.155 10.1424Z" fill="white"/>
</svg>
