<svg width="24" height="24" viewBox="0 0 24 24" fill="none" xmlns="http://www.w3.org/2000/svg">
<rect width="24" height="24" rx="1.33333" fill="#EF423C"/>
<path fill-rule="evenodd" clip-rule="evenodd" d="M14.7609 7.90909C14.6835 8.69765 15.1653 9.181 15.6739 9.27273C15.8201 9.181 15.8694 9.181 16.1304 9.27273C15.9928 9.32961 16.0177 9.51553 16.1304 9.72727C16.0177 11.2999 14.424 14.0261 12.4783 15.1818L12.9348 12.4545C13.1764 9.71374 12.213 7.95419 9.73913 7.90909C8.30932 7.95419 7 9.28 7 11.0909C7 12.539 8.32185 13.9269 10.1957 13.3636L9.73913 12C9.17404 11.8451 8.5688 11.2999 8.36957 10.6364C8.5688 9.85006 9.13706 9.28 9.73913 9.27273C10.4464 9.28 11.3729 9.71374 11.1087 12L10.6522 17H12.0217C14.9677 15.575 17.5 11.7707 17.5 9.27273C17.5 7.97899 16.8452 7 15.6739 7C15.1653 7 14.6835 7.48334 14.7609 7.90909Z" fill="white"/>
</svg>
