<svg width="15" height="15" viewBox="0 0 15 15" fill="none" xmlns="http://www.w3.org/2000/svg">
<path d="M14.6293 0.370706C14.5138 0.255067 14.3766 0.163329 14.2256 0.100738C14.0746 0.0381473 13.9128 0.00593053 13.7493 0.00593053C13.5859 0.00593053 13.4241 0.0381473 13.2731 0.100738C13.1221 0.163329 12.9849 0.255067 12.8694 0.370706L7.5 5.7401L2.12439 0.364488C1.89101 0.131111 1.57448 -1.04328e-08 1.24444 0C0.914392 1.04328e-08 0.597866 0.131111 0.364488 0.364488C0.131111 0.597866 1.04328e-08 0.914392 0 1.24444C-1.04328e-08 1.57448 0.131111 1.89101 0.364488 2.12439L5.7401 7.5L0.364488 12.8756C0.248931 12.9912 0.157266 13.1284 0.0947268 13.2793C0.0321879 13.4303 -2.85853e-08 13.5921 -3.18067e-08 13.7556C-3.50281e-08 13.919 0.0321879 14.0808 0.0947268 14.2318C0.157266 14.3828 0.248931 14.52 0.364488 14.6355C0.480045 14.7511 0.617229 14.8427 0.768212 14.9053C0.919194 14.9678 1.08102 15 1.24444 15C1.40786 15 1.56968 14.9678 1.72066 14.9053C1.87165 14.8427 2.00883 14.7511 2.12439 14.6355L7.5 9.2599L12.8756 14.6355C13.109 14.8689 13.4255 15 13.7556 15C14.0856 15 14.4021 14.8689 14.6355 14.6355C14.8689 14.4021 15 14.0856 15 13.7556C15 13.4255 14.8689 13.109 14.6355 12.8756L9.2599 7.5L14.6355 2.12439C14.8663 1.89054 14.9952 1.57485 14.9941 1.24626C14.9929 0.917684 14.8618 0.602915 14.6293 0.370706Z" fill="#CA0000"/>
</svg>
