<svg width="40" height="40" viewBox="0 0 40 40" fill="none" xmlns="http://www.w3.org/2000/svg">
<path d="M0 19.9908C0 8.96543 8.97461 0.0275879 20 0.0275879C31.0254 0.0275879 40 8.96543 40 19.9908C40 31.0162 31.0254 39.9541 20 39.9541C8.97461 39.9541 0 31.0162 0 19.9908Z" fill="#424242"/>
<path d="M22.4825 17.5453C24.583 19.6479 24.5541 23.019 22.4951 25.0894C22.4913 25.0937 22.4867 25.0982 22.4825 25.1024L20.12 27.4649C18.0363 29.5487 14.6462 29.5484 12.5628 27.4649C10.4791 25.3816 10.4791 21.9911 12.5628 19.9078L13.8673 18.6033C14.2132 18.2573 14.809 18.4872 14.8268 18.9761C14.8496 19.5992 14.9614 20.2251 15.1675 20.8296C15.2373 21.0343 15.1874 21.2607 15.0345 21.4136L14.5744 21.8737C13.5891 22.859 13.5582 24.4633 14.5338 25.4582C15.519 26.463 17.1384 26.4689 18.1312 25.4762L20.4937 23.114C21.4848 22.1229 21.4806 20.521 20.4937 19.534C20.3636 19.4042 20.2325 19.3033 20.1301 19.2328C20.0577 19.1831 19.9979 19.1171 19.9555 19.0401C19.9131 18.9632 19.8893 18.8774 19.8859 18.7896C19.872 18.4181 20.0036 18.0353 20.2972 17.7417L21.0373 17.0015C21.2314 16.8074 21.5359 16.7836 21.761 16.9407C22.0187 17.1207 22.2602 17.323 22.4825 17.5453ZM27.4372 12.5903C25.3538 10.5068 21.9637 10.5066 19.88 12.5903L17.5175 14.9528C17.5133 14.957 17.5087 14.9616 17.5049 14.9658C15.4459 17.0362 15.417 20.4073 17.5175 22.51C17.7398 22.7322 17.9812 22.9345 18.239 23.1145C18.464 23.2716 18.7686 23.2477 18.9626 23.0536L19.7028 22.3134C19.9964 22.0199 20.128 21.6371 20.1141 21.2656C20.1107 21.1778 20.0869 21.092 20.0445 21.015C20.0021 20.9381 19.9423 20.8721 19.8698 20.8224C19.7675 20.7519 19.6364 20.651 19.5063 20.5211C18.5193 19.5342 18.5152 17.9323 19.5063 16.9412L21.8688 14.579C22.8616 13.5862 24.4809 13.5922 25.4661 14.5969C26.4417 15.5919 26.4109 17.1962 25.4255 18.1815L24.9655 18.6416C24.8125 18.7945 24.7626 19.0209 24.8325 19.2256C25.0386 19.8301 25.1503 20.456 25.1731 21.0791C25.191 21.5679 25.7867 21.7979 26.1327 21.4519L27.4372 20.1474C29.5209 18.0641 29.5209 14.6736 27.4372 12.5903Z" fill="white"/>
</svg>
