<svg width="40" height="41" viewBox="0 0 40 41" fill="none" xmlns="http://www.w3.org/2000/svg">
<path fill-rule="evenodd" clip-rule="evenodd" d="M20 0.957764C8.97461 0.957764 0 9.89561 0 20.921C0 31.9464 8.97461 40.8842 20 40.8842C31.0254 40.8842 40 31.9464 40 20.921C40 9.89561 31.0254 0.957764 20 0.957764ZM21.2024 18.7556H24.4421L24.0201 21.5813H21.2024V28.8324H17.8251V21.5813H15V18.7556H17.8251V16.6715C17.8251 14.2529 19.534 12.9357 22.032 12.9357C23.2294 12.9357 24.2566 13.0125 24.5556 13.047V15.5746L22.8247 15.5753C21.4666 15.5753 21.2024 16.1329 21.2024 16.9512V18.7556Z" fill="#4A6DB4"/>
</svg>
