<svg width="40" height="41" viewBox="0 0 40 41" fill="none" xmlns="http://www.w3.org/2000/svg">
<path fill-rule="evenodd" clip-rule="evenodd" d="M0 20.921C0 9.89561 8.97461 0.957764 20 0.957764C31.0254 0.957764 40 9.89561 40 20.921C40 31.9464 31.0254 40.8842 20 40.8842C8.97461 40.8842 0 31.9464 0 20.921ZM24.9176 20.2602H18.6289V22.3526H22.4656C21.8933 24.1716 20.191 25.4912 18.1797 25.4912C15.6988 25.4912 13.6878 23.4837 13.6878 21.0075C13.6878 18.5312 15.6989 16.5239 18.1797 16.5239C19.429 16.5239 20.5589 17.033 21.3731 17.8547L22.8947 16.2038C21.6795 15.0152 20.0155 14.2821 18.1797 14.2821C14.4585 14.282 11.4419 17.2931 11.4419 21.0075C11.4419 24.7218 14.4585 27.733 18.1797 27.733C21.4394 27.733 24.2932 25.4223 24.9176 22.3526V21.68H26.4897V23.2494H27.8374V21.68H29.4095V20.335H27.8374V18.7657H26.4897V20.335H24.9176V20.2602L24.9176 20.2602Z" fill="#CA0000"/>
</svg>
