<svg width="24" height="24" viewBox="0 0 24 24" fill="none" xmlns="http://www.w3.org/2000/svg">
<rect width="24" height="24" fill="#F00073"/>
<path d="M12 7.90361C13.3253 7.90361 13.506 7.90361 14.0482 7.90361C14.5301 7.90361 14.7711 8.0241 14.9518 8.08434C15.1928 8.20482 15.3735 8.26506 15.5542 8.44578C15.7349 8.62651 15.8554 8.80723 15.9157 9.04819C15.9759 9.22892 16.0361 9.46988 16.0964 9.95181C16.0964 10.494 16.0964 10.6145 16.0964 12C16.0964 13.3855 16.0964 13.506 16.0964 14.0482C16.0964 14.5301 15.9759 14.7711 15.9157 14.9518C15.7952 15.1928 15.7349 15.3735 15.5542 15.5542C15.3735 15.7349 15.1928 15.8554 14.9518 15.9157C14.7711 15.9759 14.5301 16.0361 14.0482 16.0964C13.506 16.0964 13.3855 16.0964 12 16.0964C10.6145 16.0964 10.494 16.0964 9.95181 16.0964C9.46988 16.0964 9.22892 15.9759 9.04819 15.9157C8.80723 15.7952 8.62651 15.7349 8.44578 15.5542C8.26506 15.3735 8.14458 15.1928 8.08434 14.9518C8.0241 14.7711 7.96386 14.5301 7.90361 14.0482C7.90361 13.506 7.90361 13.3855 7.90361 12C7.90361 10.6145 7.90361 10.494 7.90361 9.95181C7.90361 9.46988 8.0241 9.22892 8.08434 9.04819C8.20482 8.80723 8.26506 8.62651 8.44578 8.44578C8.62651 8.26506 8.80723 8.14458 9.04819 8.08434C9.22892 8.0241 9.46988 7.96386 9.95181 7.90361C10.494 7.90361 10.6747 7.90361 12 7.90361ZM12 7C10.6145 7 10.494 7 9.95181 7C9.40964 7 9.04819 7.12048 8.74699 7.24096C8.44578 7.36145 8.14458 7.54217 7.84337 7.84337C7.54217 8.14458 7.42169 8.38554 7.24096 8.74699C7.12048 9.04819 7.06024 9.40964 7 9.95181C7 10.494 7 10.6747 7 12C7 13.3855 7 13.506 7 14.0482C7 14.5904 7.12048 14.9518 7.24096 15.253C7.36145 15.5542 7.54217 15.8554 7.84337 16.1566C8.14458 16.4578 8.38554 16.5783 8.74699 16.759C9.04819 16.8795 9.40964 16.9398 9.95181 17C10.494 17 10.6747 17 12 17C13.3253 17 13.506 17 14.0482 17C14.5904 17 14.9518 16.8795 15.253 16.759C15.5542 16.6386 15.8554 16.4578 16.1566 16.1566C16.4578 15.8554 16.5783 15.6145 16.759 15.253C16.8795 14.9518 16.9398 14.5904 17 14.0482C17 13.506 17 13.3253 17 12C17 10.6747 17 10.494 17 9.95181C17 9.40964 16.8795 9.04819 16.759 8.74699C16.6386 8.44578 16.4578 8.14458 16.1566 7.84337C15.8554 7.54217 15.6145 7.42169 15.253 7.24096C14.9518 7.12048 14.5904 7.06024 14.0482 7C13.506 7 13.3855 7 12 7Z" fill="white"/>
<path d="M12 9.40964C10.5542 9.40964 9.40964 10.5542 9.40964 12C9.40964 13.4458 10.5542 14.5904 12 14.5904C13.4458 14.5904 14.5904 13.4458 14.5904 12C14.5904 10.5542 13.4458 9.40964 12 9.40964ZM12 13.6867C11.0964 13.6867 10.3133 12.9639 10.3133 12C10.3133 11.0964 11.0361 10.3133 12 10.3133C12.9036 10.3133 13.6867 11.0361 13.6867 12C13.6867 12.9036 12.9036 13.6867 12 13.6867Z" fill="white"/>
<path d="M14.6506 9.95181C14.9833 9.95181 15.253 9.6821 15.253 9.3494C15.253 9.0167 14.9833 8.74699 14.6506 8.74699C14.3179 8.74699 14.0482 9.0167 14.0482 9.3494C14.0482 9.6821 14.3179 9.95181 14.6506 9.95181Z" fill="white"/>
</svg>
