<svg width="40" height="41" viewBox="0 0 40 41" fill="none" xmlns="http://www.w3.org/2000/svg">
<path fill-rule="evenodd" clip-rule="evenodd" d="M20 40.0276C31.0457 40.0276 40 31.0733 40 20.0276C40 8.98189 31.0457 0.0275879 20 0.0275879C8.9543 0.0275879 0 8.98189 0 20.0276C0 31.0733 8.9543 40.0276 20 40.0276Z" fill="#424242"/>
<path d="M12.1428 17.6876L19.7528 21.6454C19.8292 21.6851 19.9139 21.7059 20 21.7059C20.086 21.7059 20.1708 21.6851 20.2471 21.6454L27.8571 17.6883V24.5633C27.8571 25.1563 27.6303 25.7268 27.2231 26.1578C26.8158 26.5888 26.2591 26.8476 25.6671 26.8812L25.5357 26.8847H14.4643C13.8713 26.8848 13.3008 26.6579 12.8698 26.2507C12.4388 25.8435 12.18 25.2867 12.1464 24.6947L12.1428 24.5633V17.6876ZM14.4643 14.0276H25.5357C26.1286 14.0275 26.6991 14.2544 27.1301 14.6616C27.5611 15.0689 27.82 15.6256 27.8535 16.2176L27.8571 16.349V16.4804L20 20.5662L12.1428 16.4804V16.349C12.1428 15.7561 12.3696 15.1856 12.7769 14.7546C13.1841 14.3236 13.7408 14.0647 14.3328 14.0312L14.4643 14.0276H25.5357H14.4643Z" fill="white"/>
</svg>
