<svg width="18" height="18" viewBox="0 0 18 18" fill="none" xmlns="http://www.w3.org/2000/svg">
<path d="M12.8376 10.6343C13.4574 9.6163 13.7852 8.44745 13.7851 7.25566C13.7851 3.64521 10.8637 0.721655 7.25253 0.720215C3.64461 0.721295 0.719971 3.64522 0.719971 7.25494C0.719971 10.8614 3.64497 13.785 7.25469 13.785C8.49309 13.785 9.64689 13.4351 10.6329 12.8371L15.0764 17.2802L17.28 15.0756L12.8376 10.6343ZM7.25397 11.297C5.02125 11.2916 3.21621 9.4873 3.21225 7.25926C3.21377 6.18773 3.64006 5.16051 4.39768 4.40276C5.1553 3.645 6.18244 3.21853 7.25397 3.21682C9.48561 3.22258 11.2914 5.0269 11.2961 7.25926C11.2914 9.48478 9.48489 11.2916 7.25397 11.297Z" fill="#CA0000"/>
</svg>
