<svg width="40" height="41" viewBox="0 0 40 41" fill="none" xmlns="http://www.w3.org/2000/svg">
<path fill-rule="evenodd" clip-rule="evenodd" d="M20 0.957764C8.97461 0.957764 0 9.89561 0 20.921C0 31.9464 8.97461 40.8842 20 40.8842C31.0254 40.8842 40 31.9464 40 20.921C40 9.89561 31.0254 0.957764 20 0.957764ZM28.2603 15.1521C28.0041 15.855 27.46 16.4448 26.7518 16.8173C27.4457 16.7446 28.107 16.5828 28.7222 16.3433C28.2623 16.947 27.6807 17.477 27.0103 17.9014C27.0169 18.0305 27.0203 18.1603 27.0203 18.2908C27.0203 22.2682 23.5694 26.8545 17.2591 26.8545C15.3216 26.8545 13.5183 26.3562 12 25.5022C12.2684 25.53 12.5415 25.5443 12.8184 25.5443C14.4258 25.5443 15.9051 25.0631 17.0792 24.2558C15.5779 24.2316 14.3109 23.3613 13.8744 22.1656C14.0838 22.2007 14.2988 22.2196 14.5199 22.2196C14.8327 22.2196 15.1358 22.1828 15.4237 22.114C13.8542 21.8375 12.6716 20.621 12.6716 19.1627C12.6716 19.15 12.6716 19.1374 12.672 19.1249C13.1345 19.3503 13.6635 19.4857 14.2259 19.5013C13.3053 18.9616 12.6997 18.0404 12.6997 16.9961C12.6997 16.4445 12.8689 15.9274 13.1642 15.4829C14.8562 17.3039 17.3842 18.5022 20.2355 18.6277C20.177 18.4074 20.1466 18.1777 20.1466 17.9418C20.1466 16.2796 21.6828 14.932 23.5775 14.932C24.5642 14.932 25.4559 15.2975 26.0816 15.8825C26.8631 15.7475 27.5973 15.4971 28.2603 15.1521Z" fill="#1DADEB"/>
</svg>
