<svg width="40" height="40" viewBox="0 0 40 40" fill="none" xmlns="http://www.w3.org/2000/svg">
<path fill-rule="evenodd" clip-rule="evenodd" d="M20 0C8.95431 0 0 8.95431 0 20C0 31.0457 8.95431 40 20 40C31.0457 40 40 31.0457 40 20C40 8.95431 31.0457 0 20 0ZM28.2603 14.2205C28.0041 14.9246 27.46 15.5155 26.7518 15.8887C27.4457 15.8159 28.107 15.6538 28.7222 15.4139C28.2623 16.0186 27.6807 16.5497 27.0103 16.9749C27.0169 17.1042 27.0203 17.2342 27.0203 17.3649C27.0203 21.3497 23.5694 25.9444 17.2591 25.9444C15.3216 25.9444 13.5183 25.4452 12 24.5896C12.2684 24.6175 12.5415 24.6318 12.8184 24.6318C14.4258 24.6318 15.9051 24.1497 17.0792 23.3409C15.5779 23.3167 14.3109 22.4448 13.8744 21.2469C14.0838 21.2821 14.2988 21.301 14.5199 21.301C14.8327 21.301 15.1358 21.2641 15.4237 21.1952C13.8542 20.9182 12.6716 19.6994 12.6716 18.2385C12.6716 18.2257 12.6716 18.2131 12.672 18.2006C13.1345 18.4264 13.6635 18.5621 14.2259 18.5777C13.3053 18.037 12.6997 17.1141 12.6997 16.0679C12.6997 15.5152 12.8689 14.9972 13.1642 14.5519C14.8562 16.3762 17.3842 17.5767 20.2355 17.7025C20.177 17.4818 20.1466 17.2516 20.1466 17.0153C20.1466 15.35 21.6828 14 23.5775 14C24.5642 14 25.4559 14.3661 26.0816 14.9522C26.8631 14.817 27.5973 14.5661 28.2603 14.2205Z" fill="#1DADEB"/>
</svg>
