<svg width="40" height="40" viewBox="0 0 40 40" fill="none" xmlns="http://www.w3.org/2000/svg">
<rect width="40" height="40" rx="20" fill="#6ECF2F"/>
<path fill-rule="evenodd" clip-rule="evenodd" d="M25.8391 24.3092C25.622 24.9223 24.7602 25.4308 24.0728 25.5793C23.6026 25.6795 22.9883 25.7593 20.9206 24.9021C18.2757 23.8063 16.5725 21.1187 16.4397 20.9443C16.3126 20.77 15.371 19.5212 15.371 18.2297C15.371 16.9382 16.0268 16.3093 16.2912 16.0393C16.5083 15.8177 16.8672 15.7165 17.2115 15.7165C17.3228 15.7165 17.423 15.7221 17.513 15.7266C17.7773 15.7378 17.9101 15.7536 18.0845 16.171C18.3016 16.6941 18.8303 17.9856 18.8933 18.1183C18.9575 18.2511 19.0216 18.4311 18.9316 18.6055C18.8472 18.7855 18.773 18.8653 18.6402 19.0183C18.5075 19.1713 18.3815 19.2883 18.2487 19.4526C18.1272 19.5955 17.99 19.7485 18.143 20.0128C18.296 20.2716 18.8247 21.1345 19.6032 21.8275C20.6078 22.7218 21.4223 23.0076 21.7137 23.1291C21.9308 23.2191 22.1896 23.1977 22.3482 23.029C22.5496 22.8118 22.7982 22.4518 23.0513 22.0975C23.2313 21.8432 23.4586 21.8117 23.6971 21.9017C23.9401 21.9861 25.226 22.6217 25.4903 22.7533C25.7547 22.8861 25.9291 22.9491 25.9932 23.0605C26.0562 23.1718 26.0562 23.695 25.8391 24.3092ZM20.6022 11.6001H20.5977C15.6354 11.6001 11.6 15.6366 11.6 20.6001C11.6 22.5688 12.2345 24.3936 13.3134 25.8752L12.1917 29.2187L15.6511 28.1128C17.0742 29.0556 18.7719 29.6001 20.6022 29.6001C25.5646 29.6001 29.6 25.5625 29.6 20.6001C29.6 15.6377 25.5646 11.6001 20.6022 11.6001Z" fill="white"/>
</svg>
