<svg width="24" height="24" viewBox="0 0 24 24" fill="none" xmlns="http://www.w3.org/2000/svg">
<rect width="24" height="24" fill="#FF0000"/>
<path d="M16.75 9.0625C16.625 8.625 16.3125 8.3125 15.875 8.1875C15.125 8 11.9375 8 11.9375 8C11.9375 8 8.8125 8 8 8.1875C7.5625 8.3125 7.25 8.625 7.125 9.0625C7 9.875 7 11.5 7 11.5C7 11.5 7 13.125 7.1875 13.9375C7.3125 14.375 7.625 14.6875 8.0625 14.8125C8.8125 15 12 15 12 15C12 15 15.125 15 15.9375 14.8125C16.375 14.6875 16.6875 14.375 16.8125 13.9375C17 13.125 17 11.5 17 11.5C17 11.5 17 9.875 16.75 9.0625ZM11 13V10L13.625 11.5L11 13Z" fill="white"/>
</svg>
